<?xml version="1.0" encoding="utf-8"?>
<!-- Generator: Adobe Illustrator 22.0.1, SVG Export Plug-In . SVG Version: 6.00 Build 0)  -->
<svg version="1.1" id="Layer_1" xmlns="http://www.w3.org/2000/svg" xmlns:xlink="http://www.w3.org/1999/xlink" x="0px" y="0px"
	 viewBox="0 0 210.9 90.7" enable-background="new 0 0 210.9 90.7" xml:space="preserve">
<g id="Imagotipo_Color">
	<g>
		<path fill="#9D9D9C" d="M115.4,30.5c-1.4-1.2-2.4-1.6-3.6-1.6c-1.4,0-2.5,1-2.6,2.4c-0.1,0.9,0.3,1.8,1.2,2.3
			c0.6,0.4,0.8,0.5,3,1.6c2.7,1.3,3.6,2.5,3.6,5c0,2.8-2.4,5-5.4,5c-1.9,0-3.4-0.5-5-1.8l0.5-2.4c1.4,1.4,3.1,2.2,4.5,2.2
			c2,0,3.2-1.1,3.2-3c0-0.9-0.5-1.7-1.3-2.2c-0.4-0.2-0.8-0.5-1.3-0.7l-0.5-0.2l-0.5-0.2l-0.5-0.2c-2.4-1.1-3.5-2.6-3.5-4.9
			c0-2.7,2.2-4.9,4.8-4.9c1.8,0,3.2,0.5,4.5,1.7L115.4,30.5z"/>
		<path fill="#9D9D9C" d="M129.9,38.5c0.2,3.7-2.3,6.6-5.6,6.6c-3.6,0-6.1-2.5-6.1-6.2c0-3.6,2.5-6.3,5.8-6.3
			C127.3,32.7,129.7,35,129.9,38.5z M120.4,38.5c0,2.9,1.6,4.9,3.9,4.9c1.9,0,3.4-1.7,3.4-4c0-2.9-1.6-4.9-3.9-4.9
			C121.9,34.5,120.4,36.2,120.4,38.5z"/>
		<path fill="#9D9D9C" d="M139.5,35.5c-1.1-0.7-1.7-0.9-2.6-0.9c-2,0-3.5,1.7-3.5,4.1c0,2.6,1.5,4.5,3.7,4.5c1.1,0,1.7-0.2,2.8-0.9
			l0.8,1.4c-1.2,1-2.4,1.4-4,1.4c-3.4,0-5.8-2.7-5.6-6.4c0.2-3.4,2.6-6,5.7-6c1.5,0,2.6,0.3,3.7,1.2L139.5,35.5z"/>
		<path fill="#9D9D9C" d="M144.4,28.6c0,0.8-0.5,1.4-1.3,1.4c-0.7,0-1.3-0.6-1.3-1.4c0-0.8,0.6-1.4,1.3-1.4
			C143.8,27.1,144.4,27.8,144.4,28.6z M144.1,44.8H142V33h2.1V44.8z"/>
		<path fill="#9D9D9C" d="M146.5,34c1.6-0.9,2.8-1.3,4.1-1.3c1.3,0,2.5,0.5,3.1,1.3c0.5,0.6,0.7,1.6,0.7,3.1V41c0,1,0,1,0,1.2
			c0.1,1,0.4,1.3,1.3,1.3h0.3l-0.3,1.5c-0.4,0.1-0.4,0.1-1,0.1c-1.1,0-1.8-0.5-2.1-1.4c-1.3,1.1-2.2,1.5-3.5,1.5
			c-2,0-3.4-1.4-3.3-3.6c0.1-1.9,1.3-3.1,3.6-3.7c0.5-0.1,1.3-0.3,2.2-0.4l0.4-0.1l0.2-0.1v-0.5c0-0.9-0.1-1.3-0.4-1.7
			c-0.4-0.4-1.1-0.6-1.9-0.6c-1.1,0.1-1.9,0.4-3.5,1.3V34z M152.3,38.7c-3,0.5-4.2,1.2-4.3,2.8c-0.1,1.2,0.6,2,1.9,2
			c0.9,0,1.6-0.3,2.5-1V38.7z"/>
		<path fill="#9D9D9C" d="M159.4,26.1v18.7h-2.1V26.1H159.4z"/>
		<path fill="#9D9D9C" d="M166.5,27.3c2.7-0.2,2.7-0.2,4.9-0.2c3,0,5.7,1,7.3,2.8c1.6,1.7,2.3,3.7,2.3,6.5c0,2.7-1.4,5.4-3.4,6.9
			c-0.8,0.6-1.7,1-2.9,1.2c-0.9,0.2-2.4,0.4-3.1,0.4l-1.4,0c-1.3,0-2.1-0.1-3.6-0.2V27.3z M168.8,42.7c1.2,0.2,1.3,0.2,2.8,0.2
			c4.5,0,7-2.4,7-6.8c0-2.5-1.5-5-3.5-6c-1.1-0.5-2.3-0.9-3.6-0.9c-0.5,0-0.9-0.1-1.4-0.1l-0.7,0c0,0-0.3,0-0.5,0V42.7z"/>
		<path fill="#9D9D9C" d="M182.8,34c1.6-0.9,2.8-1.3,4.1-1.3c1.3,0,2.5,0.5,3.1,1.3c0.5,0.6,0.7,1.6,0.7,3.1V41c0,1,0,1,0,1.2
			c0.1,1,0.4,1.3,1.3,1.3h0.3L192,45c-0.4,0.1-0.4,0.1-1,0.1c-1.1,0-1.8-0.5-2.1-1.4c-1.3,1.1-2.2,1.5-3.5,1.5c-2,0-3.4-1.4-3.3-3.6
			c0.1-1.9,1.3-3.1,3.6-3.7c0.5-0.1,1.3-0.3,2.2-0.4l0.4-0.1l0.2-0.1v-0.5c0-0.9-0.1-1.3-0.4-1.7c-0.4-0.4-1.1-0.6-1.9-0.6
			c-1.1,0.1-1.9,0.4-3.5,1.3V34z M188.6,38.7c-3,0.5-4.2,1.2-4.3,2.8c-0.1,1.2,0.6,2,1.9,2c0.9,0,1.6-0.3,2.5-1V38.7z"/>
		<path fill="#9D9D9C" d="M199.3,34.7h-3.1v6.2c0,1.9,0.3,2.3,1.7,2.3c0.5,0,1.1-0.1,1.9-0.5l0.3,1.5c-1,0.6-2.1,0.8-3.3,0.8
			c-1.1-0.1-2-0.6-2.5-1.4c-0.2-0.5-0.3-1.1-0.3-2v-1v-5.9h-2.4v-1.4l0.7-0.1c1.9-0.1,2.3-0.5,2.6-2.9l0.1-0.7h1.3l-0.2,3.3h3.1
			V34.7z"/>
		<path fill="#9D9D9C" d="M201,34c1.6-0.9,2.8-1.3,4.1-1.3c1.3,0,2.5,0.5,3.1,1.3c0.5,0.6,0.7,1.6,0.7,3.1V41c0,1,0,1,0,1.2
			c0.1,1,0.4,1.3,1.3,1.3h0.3l-0.3,1.5c-0.4,0.1-0.4,0.1-1,0.1c-1.1,0-1.8-0.5-2.1-1.4c-1.3,1.1-2.2,1.5-3.5,1.5
			c-2,0-3.4-1.4-3.3-3.6c0.1-1.9,1.3-3.1,3.6-3.7c0.5-0.1,1.3-0.3,2.2-0.4l0.4-0.1l0.2-0.1v-0.5c0-0.9-0.1-1.3-0.4-1.7
			c-0.4-0.4-1.1-0.6-1.9-0.6c-1.1,0.1-1.9,0.4-3.5,1.3V34z M206.8,38.7c-3,0.5-4.2,1.2-4.3,2.8c-0.1,1.2,0.6,2,1.9,2
			c0.9,0,1.6-0.3,2.5-1V38.7z"/>
		<path fill="#DD2227" d="M109.8,69.8h-2.3V52.2h2.3V69.8z"/>
		<path fill="#DD2227" d="M112.3,52.3c2.3-0.2,3-0.3,4.2-0.3c3.4,0,5.5,1.7,5.5,4.4c0,1.7-0.8,2.8-2.6,3.8c1.1,0.2,1.6,0.5,2.3,1.1
			c1,0.9,1.6,2.2,1.6,3.6c0,3-2.5,5-6.2,5c-1.5,0-2,0-3.2-0.1c-0.3,0-0.8-0.1-1.5-0.1V52.3z M114.6,59.9h2.6c1.2,0,2.4-1.5,2.5-3
			c0.1-1.7-1.3-3-3.3-3H116c-0.4,0-0.7,0-1.4,0.1V59.9z M114.6,67.9c1.1,0.1,1.6,0.2,2.5,0.2c2.4,0,3.8-1.1,3.8-3
			c0-1.4-0.7-2.6-1.9-3.1c-0.5-0.2-1.3-0.3-2.3-0.3h-2.1V67.9z"/>
		<path fill="#DD2227" d="M134.3,54.2h-6.9v5.4h6.3v1.9h-6.3v6.3h8l-0.3,2h-10V52.2h9.1V54.2z"/>
		<path fill="#DD2227" d="M136.9,52.3c1.8-0.2,2.6-0.3,4.2-0.3c4.1,0,6.3,1.9,6.3,5.2c0,1.5-0.8,3-1.9,4c-0.4,0.3-0.7,0.5-1.4,0.7
			l5.3,7.8h-2.7l-4.8-7.2h-2.7v7.2h-2.3V52.3z M139.1,60.8h3.3c1.5,0,2.7-1.5,2.7-3.3c0-2.3-1.5-3.5-4.1-3.5h-0.5
			c-0.5,0-0.8,0-1.3,0.1V60.8z"/>
		<path fill="#DD2227" d="M164.2,55c1.3,1.6,2,3.7,2,6.1c0,5.3-3.6,9-8.8,9c-4.9,0-8.6-3.9-8.6-9.3c0-5,3.8-9.1,8.6-9.1
			C160.3,51.8,162.5,52.9,164.2,55z M152.6,56.2c-0.9,1.2-1.3,2.7-1.3,4.6c0,1.8,0.9,4,2.1,5.3c1.1,1.1,2.7,1.8,4.1,1.8
			c3.8,0,6.2-2.6,6.2-6.7c0-4.2-2.8-7.4-6.6-7.4C155.3,53.9,153.7,54.7,152.6,56.2z"/>
	</g>
	<g>
		<path fill="#9D9D9C" d="M47.2,11.5v27c-0.2,0-0.4,0-0.5,0c-0.2,0-0.4,0-0.5,0v-27c0.2,0,0.4,0,0.5,0C46.8,11.6,47,11.6,47.2,11.5z
			"/>
		<path fill="#9D9D9C" d="M43,39.2l-1,0.5L31.3,17.4c0.3-0.1,0.7-0.3,1-0.5L43,39.2z"/>
	</g>
	<g>
		<path fill="#9D9D9C" d="M6.6,31L38,43.9c-0.2,0.3-0.3,0.7-0.4,1L6.2,32C6.4,31.7,6.6,31.4,6.6,31z"/>
	</g>
	<g>
		<path fill="#9D9D9C" d="M37.8,51.6c0.1,0.3,0.3,0.7,0.5,1l-8.6,4c-0.1-0.4-0.3-0.7-0.5-1L37.8,51.6z"/>
		<path fill="#9D9D9C" d="M37.1,47.5c0,0.2,0,0.4,0,0.5c0,0.2,0,0.4,0,0.5H15.3c0-0.4,0-0.7,0-1.1H37.1z"/>
	</g>
	<g>
		<path fill="#9D9D9C" d="M42.1,56.5c0.3,0.2,0.6,0.3,1,0.5l-5.9,12.7c-0.3-0.2-0.6-0.3-1-0.4L42.1,56.5z"/>
		<path fill="#9D9D9C" d="M39.5,54.4c0.2,0.3,0.5,0.5,0.8,0.8L18.9,76.3c-0.2-0.3-0.5-0.5-0.8-0.8L39.5,54.4z"/>
	</g>
	<g>
		<path fill="#9D9D9C" d="M50.6,39.3c-0.3-0.2-0.7-0.3-1-0.4l8.3-21.8c0.3,0.2,0.7,0.3,1,0.4L50.6,39.3z"/>
		<path fill="#9D9D9C" d="M60.8,34.8l-7,6.9c-0.2-0.3-0.5-0.5-0.8-0.8l7-6.9C60.3,34.4,60.6,34.6,60.8,34.8z"/>
	</g>
	<g>
		<path fill="#9D9D9C" d="M56.2,48.6c0-0.2,0-0.4,0-0.5c0-0.2,0-0.4,0-0.5h25.4c0,0.4,0,0.7,0,1.1H56.2z"/>
	</g>
	<g>
		<path fill="#9D9D9C" d="M55.6,51.3l10,4.3c-0.2,0.3-0.4,0.6-0.4,1l-10-4.3C55.4,52,55.5,51.7,55.6,51.3z"/>
		<path fill="#9D9D9C" d="M75.9,77.3c-0.3,0.2-0.5,0.5-0.8,0.8L52.9,55.3c0.3-0.2,0.5-0.5,0.8-0.8L75.9,77.3z"/>
	</g>
	<g>
		<path fill="#9D9D9C" d="M63.8,83.3c-0.3,0.1-0.7,0.3-1,0.5L50.2,56.9c0.3-0.1,0.7-0.3,1-0.5L63.8,83.3z"/>
	</g>
	<g>
		<path fill="#DD2227" d="M54.4,48c0,4.3-3.5,7.8-7.8,7.8c-4.3,0-7.8-3.5-7.8-7.8c0-4.3,3.5-7.8,7.8-7.8
			C50.9,40.3,54.4,43.8,54.4,48z"/>
	</g>
	<g>
		<path fill="#FFFFFF" d="M51.5,7c-0.5,1.3-1.4,2.3-2.7,2.9c-1.2,0.6-2.7,0.7-4,0.2c-1.3-0.5-2.3-1.4-2.9-2.7
			c-1.2-2.6-0.1-5.7,2.4-6.9c1.3-0.6,2.7-0.7,4-0.2c1.3,0.5,2.3,1.4,2.9,2.7C51.9,4.3,52,5.7,51.5,7z"/>
	</g>
	<g>
		<path fill="#FFFFFF" d="M67.1,34.8c-1.3,0.6-2.7,0.7-4,0.2c-1.3-0.5-2.3-1.4-2.9-2.7c-1.2-2.6-0.1-5.7,2.4-6.9
			c1.2-0.6,2.7-0.7,4-0.2c1.3,0.5,2.3,1.4,2.9,2.7C70.8,30.4,69.7,33.5,67.1,34.8z"/>
	</g>
	<g>
		<path fill="#DD2227" d="M62.4,13.8c0,0.7-0.3,1.4-0.8,1.9c-1,1-2.8,1-3.8,0c-1-1-1-2.7,0-3.8c0.5-0.5,1.2-0.8,1.9-0.8
			c0.7,0,1.4,0.3,1.9,0.8v0C62.1,12.4,62.4,13.1,62.4,13.8z"/>
	</g>
	<g>
		<path fill="#DD2227" d="M32.9,13.8c0,0.7-0.3,1.4-0.8,1.9c-0.1,0.1-0.2,0.2-0.3,0.2c-0.3,0.2-0.6,0.4-1,0.5
			c-0.9,0.2-1.9,0-2.5-0.7c-0.5-0.5-0.8-1.2-0.8-1.9c0-0.7,0.3-1.4,0.8-1.9c0.5-0.5,1.2-0.8,1.9-0.8c0.7,0,1.4,0.3,1.9,0.8
			C32.6,12.4,32.9,13.1,32.9,13.8z"/>
	</g>
	<g>
		<path fill="#DD2227" d="M70.8,59.5c-1,1-2.7,1-3.8,0c-1-1-1-2.7,0-3.8c0.5-0.5,1.2-0.8,1.9-0.8s1.4,0.3,1.9,0.8
			C71.8,56.8,71.8,58.5,70.8,59.5z"/>
	</g>
	<g>
		<path fill="#DD2227" d="M66.8,88.7c-1,1-2.7,1-3.8,0c-1-1-1-2.7,0-3.8c0.5-0.5,1.2-0.8,1.9-0.8s1.4,0.3,1.9,0.8
			C67.8,86,67.8,87.7,66.8,88.7z"/>
	</g>
	<g>
		<path fill="#DD2227" d="M28.7,57.6c0,0.7-0.3,1.4-0.8,1.9c-1,1-2.8,1-3.8,0c-1-1-1-2.7,0-3.8c0.5-0.5,1.2-0.8,1.9-0.8
			s1.4,0.3,1.9,0.8C28.5,56.2,28.7,56.9,28.7,57.6z"/>
	</g>
	<g>
		<path fill="#E02128" d="M5.7,30.1c0,0.2,0,0.3-0.1,0.5c-0.1,0.4-0.2,0.7-0.4,1C5.1,31.7,5,31.9,4.9,32c-1,1-2.8,1-3.8,0
			c-1-1-1-2.7,0-3.8c0.5-0.5,1.2-0.8,1.9-0.8c0.7,0,1.4,0.3,1.9,0.8C5.4,28.7,5.7,29.4,5.7,30.1z"/>
		<path fill="#DD2227" d="M4.9,28.2c-0.5-0.5-1.2-0.8-1.9-0.8c-0.7,0-1.4,0.3-1.9,0.8c-1,1-1,2.7,0,3.8c1,1,2.8,1,3.8,0
			c0.1-0.1,0.2-0.3,0.3-0.4c0.2-0.3,0.4-0.6,0.4-1c0-0.2,0.1-0.3,0.1-0.5C5.7,29.4,5.4,28.7,4.9,28.2z"/>
	</g>
	<g>
		<path fill="#DD2227" d="M37.9,72.8c0,0.7-0.3,1.4-0.8,1.9c-1,1-2.8,1-3.8,0c-0.5-0.5-0.8-1.2-0.8-1.9c0-0.7,0.3-1.4,0.8-1.9
			c0.5-0.5,1.2-0.8,1.9-0.8c0.7,0,1.4,0.3,1.9,0.8v0C37.6,71.4,37.9,72.1,37.9,72.8z"/>
	</g>
	<g>
		<path fill="#FFFFFF" d="M14.3,48.6c-0.2,1.7-1.2,3.3-2.9,4.1c-2.6,1.2-5.7,0.1-6.9-2.4c-1.2-2.6-0.1-5.7,2.4-6.9
			c2.6-1.2,5.7-0.1,6.9,2.4c0.3,0.5,0.4,1.1,0.5,1.7C14.3,47.9,14.3,48.2,14.3,48.6z"/>
	</g>
	<g>
		<path fill="#FFFFFF" d="M90.1,52.7c-0.7,0.3-1.5,0.5-2.2,0.5c-1.9,0-3.8-1.1-4.7-3c-0.6-1.2-0.7-2.7-0.2-3.9
			c0.5-1.3,1.4-2.3,2.7-2.9c0.7-0.3,1.5-0.5,2.2-0.5c0.6,0,1.2,0.1,1.7,0.3c1.3,0.5,2.3,1.4,2.9,2.7C93.7,48.4,92.6,51.5,90.1,52.7z
			"/>
	</g>
	<g>
		<path fill="#DD2227" d="M19,82c-0.5,1.3-1.4,2.3-2.7,2.9c-2.6,1.2-5.7,0.1-6.9-2.4c-0.6-1.2-0.7-2.7-0.2-4
			c0.5-1.3,1.4-2.3,2.7-2.9c2.6-1.2,5.7-0.1,6.9,2.4C19.4,79.3,19.4,80.7,19,82z"/>
	</g>
	<g>
		<path fill="#FFFFFF" d="M84.7,83.9c-0.5,1.3-1.4,2.3-2.7,2.9c-2.6,1.2-5.7,0.1-6.9-2.4c-0.6-1.2-0.7-2.7-0.2-4
			c0.5-1.3,1.4-2.3,2.7-2.9c2.6-1.2,5.7-0.1,6.9,2.4C85.1,81.2,85.2,82.6,84.7,83.9z"/>
	</g>
	<g>
		<g>
			<path fill="#DD2227" d="M82,32.1c0,0.7-0.6,1.3-1.3,1.3c-0.7,0-1.3-0.6-1.3-1.3c0-0.7,0.6-1.3,1.3-1.3C81.4,30.8,82,31.4,82,32.1
				z"/>
			<path fill="#DD2227" d="M80.7,29c-2.2,0-4,1.8-4,4c0,2.2,1.8,4,4,4c2.2,0,4-1.8,4-4C84.6,30.8,82.9,29,80.7,29z M82.8,35.4v-0.2
				c0-0.8-0.7-1.5-1.5-1.5h-1.2c-0.9,0-1.5,0.7-1.5,1.5v0.2c-0.7-0.6-1.1-1.5-1.1-2.4c0-1.8,1.5-3.3,3.3-3.3c1.8,0,3.2,1.5,3.2,3.3
				C83.9,34,83.5,34.8,82.8,35.4z"/>
		</g>
		<g>
			<g>
				<path fill="#DD2227" d="M82,32.1c0,0.7-0.6,1.3-1.3,1.3c-0.7,0-1.3-0.6-1.3-1.3c0-0.7,0.6-1.3,1.3-1.3
					C81.4,30.8,82,31.4,82,32.1z"/>
			</g>
			<g>
				<path fill="#DD2227" d="M80.7,29c-2.2,0-4,1.8-4,4c0,2.2,1.8,4,4,4c2.2,0,4-1.8,4-4C84.6,30.8,82.9,29,80.7,29z M82.8,35.4v-0.2
					c0-0.8-0.7-1.5-1.5-1.5h-1.2c-0.9,0-1.5,0.7-1.5,1.5v0.2c-0.7-0.6-1.1-1.5-1.1-2.4c0-1.8,1.5-3.3,3.3-3.3c1.8,0,3.2,1.5,3.2,3.3
					C83.9,34,83.5,34.8,82.8,35.4z"/>
			</g>
		</g>
	</g>
	<g>
		<g>
			<path fill="#FFFFFF" d="M48.5,83.6c0,1-0.8,1.8-1.8,1.8c-1,0-1.8-0.8-1.8-1.8c0-1,0.8-1.8,1.8-1.8C47.7,81.8,48.5,82.6,48.5,83.6
				z"/>
			<path fill="#FFFFFF" d="M46.7,79.2c-3.1,0-5.7,2.5-5.7,5.7c0,3.1,2.5,5.7,5.7,5.7c3.1,0,5.7-2.5,5.7-5.7
				C52.3,81.8,49.8,79.2,46.7,79.2z M49.7,88.4v-0.2c0-1.2-1-2.2-2.2-2.2h-1.7c-1.2,0-2.2,1-2.2,2.2v0.2c-1-0.9-1.6-2.1-1.6-3.5
				c0-2.6,2.1-4.6,4.6-4.6c2.5,0,4.6,2.1,4.6,4.6C51.3,86.3,50.7,87.5,49.7,88.4z"/>
		</g>
		<g>
			<g>
				<path fill="#FFFFFF" d="M48.5,83.6c0,1-0.8,1.8-1.8,1.8c-1,0-1.8-0.8-1.8-1.8c0-1,0.8-1.8,1.8-1.8
					C47.7,81.8,48.5,82.6,48.5,83.6z"/>
			</g>
			<g>
				<path fill="#FFFFFF" d="M46.7,79.2c-3.1,0-5.7,2.5-5.7,5.7c0,3.1,2.5,5.7,5.7,5.7c3.1,0,5.7-2.5,5.7-5.7
					C52.3,81.8,49.8,79.2,46.7,79.2z M49.7,88.4v-0.2c0-1.2-1-2.2-2.2-2.2h-1.7c-1.2,0-2.2,1-2.2,2.2v0.2c-1-0.9-1.6-2.1-1.6-3.5
					c0-2.6,2.1-4.6,4.6-4.6c2.5,0,4.6,2.1,4.6,4.6C51.3,86.3,50.7,87.5,49.7,88.4z"/>
			</g>
		</g>
	</g>
	<g>
		<g>
			<path fill="#FFFFFF" d="M24.8,21.9c-2.7,0-4.8,2.2-4.8,4.8c0,2.7,2.2,4.8,4.8,4.8c2.7,0,4.8-2.2,4.8-4.8
				C29.7,24,27.5,21.9,24.8,21.9z M27.4,29.7v-0.2c0-1-0.8-1.9-1.9-1.9h-1.5c-1,0-1.9,0.8-1.9,1.9v0.2c-0.8-0.7-1.4-1.8-1.4-3
				c0-2.2,1.8-3.9,3.9-3.9c2.2,0,3.9,1.8,3.9,3.9C28.8,27.9,28.2,28.9,27.4,29.7z"/>
		</g>
		<g>
			<g>
				<circle fill="#FFFFFF" cx="24.8" cy="25.6" r="1.6"/>
			</g>
			<g>
				<path fill="#FFFFFF" d="M24.8,21.9c-2.7,0-4.8,2.2-4.8,4.8c0,2.7,2.2,4.8,4.8,4.8c2.7,0,4.8-2.2,4.8-4.8
					C29.7,24,27.5,21.9,24.8,21.9z M27.4,29.7v-0.2c0-1-0.8-1.9-1.9-1.9h-1.5c-1,0-1.9,0.8-1.9,1.9v0.2c-0.8-0.7-1.4-1.8-1.4-3
					c0-2.2,1.8-3.9,3.9-3.9c2.2,0,3.9,1.8,3.9,3.9C28.8,27.9,28.2,28.9,27.4,29.7z"/>
			</g>
		</g>
	</g>
</g>
</svg>
